<?xml version="1.0" encoding="UTF-8" standalone="no"?>
<svg
   role="img"
   viewBox="0 0 24 24"
   version="1.1"
   id="svg1"
   sodipodi:docname="archlinux.svg"
   inkscape:version="1.4.2 (ebf0e940d0, 2025-05-08)"
   xmlns:inkscape="http://www.inkscape.org/namespaces/inkscape"
   xmlns:sodipodi="http://sodipodi.sourceforge.net/DTD/sodipodi-0.dtd"
   xmlns="http://www.w3.org/2000/svg"
   xmlns:svg="http://www.w3.org/2000/svg">
  <defs
     id="defs1" />
  <sodipodi:namedview
     id="namedview1"
     pagecolor="#505050"
     bordercolor="#eeeeee"
     borderopacity="1"
     inkscape:showpageshadow="0"
     inkscape:pageopacity="0"
     inkscape:pagecheckerboard="0"
     inkscape:deskcolor="#505050"
     inkscape:zoom="17.041667"
     inkscape:cx="14.02445"
     inkscape:cy="14.376528"
     inkscape:window-width="1886"
     inkscape:window-height="995"
     inkscape:window-x="0"
     inkscape:window-y="0"
     inkscape:window-maximized="1"
     inkscape:current-layer="svg1" />
  <title
     id="title1">Arch Linux</title>
  <path
     id="path1"
     fill="#CDD6f4"
     d="M 11.390625 0.60546875 C 10.376625 3.0924688 9.7637656 4.7208125 8.6347656 7.1328125 C 9.3277656 7.8668125 10.178594 8.7205469 11.558594 9.6855469 C 10.074594 9.0755469 9.0626406 8.4621719 8.3066406 7.8261719 C 6.8606406 10.842172 4.596 15.137531 0 23.394531 C 3.612 21.309531 6.4124844 20.025203 9.0214844 19.533203 A 6.61 6.61 0 0 1 8.8496094 17.986328 L 8.8535156 17.871094 C 8.9115156 15.556094 10.113062 13.776438 11.539062 13.898438 C 12.965063 14.018437 14.073578 15.993641 14.017578 18.306641 A 6.52 6.52 0 0 1 13.871094 19.550781 C 16.451094 20.055781 19.223156 21.337531 22.785156 23.394531 C 22.083156 22.101531 21.456422 20.935219 20.857422 19.824219 C 19.914422 19.094219 18.930828 18.142328 16.923828 17.111328 C 18.303828 17.470328 19.290547 17.883703 20.060547 18.345703 C 13.970547 7.0117031 13.478625 5.5054687 11.390625 0.60546875 z M 22.664062 20.652344 L 22.664062 20.736328 L 22.898438 20.736328 L 22.898438 21.359375 L 22.992188 21.359375 L 22.992188 20.736328 L 23.226562 20.736328 L 23.226562 20.652344 L 22.664062 20.652344 z M 23.322266 20.652344 L 23.322266 21.359375 L 23.414062 21.359375 L 23.414062 20.757812 L 23.619141 21.359375 L 23.703125 21.359375 L 23.908203 20.767578 L 23.908203 21.359375 L 24 21.359375 L 24 20.652344 L 23.873047 20.652344 L 23.703125 21.146484 A 2.26 2.26 0 0 0 23.666016 21.259766 L 23.632812 21.152344 L 23.464844 20.652344 L 23.322266 20.652344 z " />
</svg>
